Coordinates
version=1
nRows=32
nColumns=12
inDegrees=yes

Units are S.I. units (second, meters, Newtons, ...)
Angles are in degrees

endheader
time	SC_y	SC_z	SC_x	AC_y	AC_z	AC_x	GH_y	GH_z	GH_yy	EL_x	PS_y
       0.0              -21.12          9.629          44.14           54.0         -5.897         -12.15         -17.04          7.881           23.4          96.89          136.9
   0.02802              -21.12          9.628          44.14           54.0         -5.899         -12.14         -17.02          7.882          23.39          96.89          136.9
   0.05605              -21.12          9.627          44.14           54.0           -5.9         -12.14         -16.99          7.883          23.39          96.89          136.9
   0.08407              -21.12          9.625          44.14          53.99         -5.902         -12.13         -16.97          7.883          23.39          96.89          136.9
    0.1121              -21.12          9.624          44.15          53.99         -5.904         -12.13         -16.94          7.884          23.38          96.89          136.9
    0.1401              -21.12          9.622          44.15          53.99         -5.907         -12.13         -16.91          7.885          23.38          96.89          136.9
    0.1681              -21.12          9.621          44.15          53.99         -5.909         -12.12         -16.88          7.886          23.37          96.89          136.8
    0.1962              -21.12          9.619          44.15          53.99         -5.911         -12.12         -16.84          7.888          23.37           96.9          136.8
    0.2242              -21.12          9.617          44.15          53.99         -5.914         -12.11         -16.81          7.889          23.36           96.9          136.8
    0.2522              -21.13          9.615          44.15          53.98         -5.917         -12.11         -16.77           7.89          23.36           96.9          136.8
    0.2802              -21.13          9.613          44.15          53.98          -5.92          -12.1         -16.72          7.891          23.35           96.9          136.8
    0.3083              -21.13           9.61          44.15          53.98         -5.923         -12.09         -16.68          7.893          23.34           96.9          136.8
    0.3363              -21.13          9.608          44.15          53.98         -5.927         -12.09         -16.63          7.894          23.34          96.91          136.8
    0.3643              -21.13          9.605          44.16          53.97         -5.931         -12.08         -16.58          7.896          23.33          96.91          136.8
    0.3923              -21.13          9.602          44.16          53.97         -5.935         -12.07         -16.52          7.898          23.32          96.91          136.8
    0.4204              -21.14          9.599          44.16          53.97         -5.939         -12.06         -16.46            7.9          23.31          96.91          136.8
    0.4484              -21.14          9.595          44.16          53.96         -5.944         -12.05         -16.39          7.902           23.3          96.92          136.8
    0.4764              -21.14          9.591          44.16          53.96          -5.95         -12.04         -16.32          7.905          23.29          96.92          136.8
    0.5044              -21.14          9.587          44.17          53.95         -5.956         -12.03         -16.23          7.907          23.28          96.93          136.8
    0.5325              -21.15          9.583          44.17          53.95         -5.962         -12.02         -16.15           7.91          23.27          96.93          136.8
    0.5605              -21.15          9.577          44.17          53.94         -5.969         -12.01         -16.05          7.913          23.25          96.94          136.8
    0.5885              -21.15          9.572          44.17          53.94         -5.977         -11.99         -15.94          7.917          23.24          96.94          136.8
    0.6165              -21.16          9.566          44.18          53.93         -5.985         -11.97         -15.83          7.921          23.22          96.95          136.8
    0.6446              -21.16          9.559          44.18          53.92         -5.995         -11.96          -15.7          7.925           23.2          96.95          136.8
    0.6726              -21.17          9.551          44.19          53.92         -6.005         -11.94         -15.55          7.929          23.18          96.96          136.8
    0.7006              -21.17          9.543          44.19          53.91         -6.017         -11.91         -15.39          7.935          23.16          96.97          136.7
    0.7286              -21.18          9.534           44.2           53.9          -6.03         -11.89         -15.21          7.941          23.13          96.98          136.7
    0.7567              -21.19          9.523           44.2          53.89         -6.045         -11.86         -15.01          7.947           23.1          96.99          136.7
    0.7847              -21.19          9.511          44.21          53.87         -6.062         -11.83         -14.78          7.955          23.07           97.0          136.7
    0.8127               -21.2          9.497          44.22          53.86         -6.081         -11.79         -14.51          7.963          23.03          97.01          136.7
    0.8407              -21.21          9.482          44.22          53.84         -6.102         -11.75         -14.22          7.973          22.99          97.03          136.7
    0.8688              -21.23          9.464          44.23          53.82         -6.127          -11.7         -13.87          7.984          22.94          97.05          136.6
